# xmcd CD database file
#
# Track frame offsets:
#	150
#	16627
#	30602
#	38007
#	47245
#	76045
#	97485
#	122917
#	140532
#	193900
#	202752
#	220112
#	227752
#	253070
#	279837
#
# Disc length: 3830 seconds
#
# Revision: 1
# Processed by: cddbd v1.5PL3 Copyright (c) Steve Scherf et al.
# Submitted via: CDex 1.50beta10
#
DISCID=cb0ef40f
DTITLE=Atemgold 09 - Am Emscherstrand
DYEAR=1993
DGENRE=Jazz
TTITLE0=Nimm den Toeaster vom Boden
TTITLE1=Küsse am Kohlenhafen
TTITLE2=Um Eins bei Heinz
TTITLE3=Dicke sind auch Menschen
TTITLE4=Muselmanns Spuren
TTITLE5=He He He
TTITLE6=Veterano
TTITLE7=Picknick am Kanal
TTITLE8=Kalumet
TTITLE9=Böse Brut Marsch
TTITLE10=Nichtsdestowenigertrotz
TTITLE11=Schorsch der Unheimliche
TTITLE12=The Circle
TTITLE13=Bup teh Buuh
TTITLE14=Die letzte Schicht
EXTD=YEAR: 1993
EXTT0=
EXTT1=
EXTT2=
EXTT3=
EXTT4=
EXTT5=
EXTT6=
EXTT7=
EXTT8=
EXTT9=
EXTT10=
EXTT11=
EXTT12=
EXTT13=
EXTT14=
PLAYORDER=
